<svg xmlns="http://www.w3.org/2000/svg" viewBox="0 0 1200 1500" role="img" aria-label="FASCINE bright primer product">
  <defs>
    <linearGradient id="bg" x1="0" x2="1" y1="0" y2="1">
      <stop offset="0" stop-color="#fff"/>
      <stop offset=".58" stop-color="#faf5ef"/>
      <stop offset="1" stop-color="#efe3d7"/>
    </linearGradient>
    <linearGradient id="bottle" x1="0" x2="1">
      <stop offset="0" stop-color="#f8f5ef"/>
      <stop offset=".48" stop-color="#ffffff"/>
      <stop offset="1" stop-color="#e7ded4"/>
    </linearGradient>
    <linearGradient id="cap" x1="0" x2="1">
      <stop offset="0" stop-color="#6b5f53"/>
      <stop offset="1" stop-color="#3f3731"/>
    </linearGradient>
    <filter id="shadow" x="-20%" y="-20%" width="140%" height="140%">
      <feDropShadow dx="0" dy="28" stdDeviation="32" flood-color="#463f37" flood-opacity=".18"/>
    </filter>
  </defs>
  <rect width="1200" height="1500" fill="url(#bg)"/>
  <circle cx="945" cy="260" r="220" fill="#fff" opacity=".42"/>
  <circle cx="260" cy="1120" r="300" fill="#ffffff" opacity=".48"/>
  <g filter="url(#shadow)">
    <rect x="445" y="244" width="310" height="126" rx="50" fill="url(#cap)"/>
    <rect x="490" y="350" width="220" height="90" rx="20" fill="#f6f1eb"/>
    <rect x="410" y="425" width="380" height="760" rx="92" fill="url(#bottle)"/>
    <rect x="452" y="482" width="296" height="622" rx="66" fill="#fff" opacity=".34"/>
    <path d="M467 860h266" stroke="#d8c6b8" stroke-width="4" stroke-linecap="round"/>
    <path d="M490 900h220" stroke="#d8c6b8" stroke-width="3" stroke-linecap="round"/>
    <text x="600" y="710" text-anchor="middle" font-family="Arial, Helvetica, sans-serif" font-size="105" font-weight="700" fill="#463f37">F</text>
    <text x="600" y="800" text-anchor="middle" font-family="Arial, Helvetica, sans-serif" font-size="45" letter-spacing="8" fill="#463f37">FASCINE</text>
    <text x="600" y="935" text-anchor="middle" font-family="Arial, Helvetica, sans-serif" font-size="33" letter-spacing="5" fill="#8a6a55">BRIGHT PRIMER</text>
    <text x="600" y="987" text-anchor="middle" font-family="Arial, Helvetica, sans-serif" font-size="24" letter-spacing="3" fill="#8a6a55">SKIN BOOSTER</text>
  </g>
  <path d="M300 336c106-52 200-78 302-78 112 0 215 29 323 89" fill="none" stroke="#d8b8ad" stroke-width="5" stroke-linecap="round" opacity=".55"/>
  <path d="M322 1218c92 42 182 63 278 63 105 0 202-25 290-74" fill="none" stroke="#8a6a55" stroke-width="5" stroke-linecap="round" opacity=".24"/>
</svg>
